<?xml version="1.0" encoding="UTF-8"?>
<svg xmlns="http://www.w3.org/2000/svg" xmlns:xlink="http://www.w3.org/1999/xlink" width="128px" height="128px" viewBox="0 0 128 128" version="1.1">
<g id="surface1">
<path style=" stroke:none;fill-rule:nonzero;fill:rgb(0%,0%,0%);fill-opacity:1;" d="M 48.003906 0.234375 C 45.296875 0.796875 43.347656 2.121094 42.003906 4.3125 C 40.726562 6.367188 39.257812 9.28125 37.785156 12.664062 C 37.089844 14.304688 36.441406 15.714844 36.375 15.796875 C 36.3125 15.878906 35.664062 15.5 34.925781 14.953125 C 32.566406 13.179688 29.925781 12.214844 25.398438 11.519531 C 20.398438 10.742188 16.738281 11.007812 12.820312 12.414062 C 9.3125 13.675781 7.105469 15.050781 4.746094 17.488281 C 2.949219 19.308594 1.410156 21.582031 0.933594 23.121094 C -0.710938 28.195312 -0.148438 33.746094 2.386719 37.558594 C 4.054688 40.078125 8.078125 44.023438 10.375 45.382812 C 14.554688 47.835938 19.207031 49.277344 23.90625 49.523438 C 25.960938 49.640625 26.027344 49.65625 26.113281 50.054688 C 26.199219 50.535156 25.269531 56.75 25.074219 57 C 24.988281 57.082031 22.542969 57.628906 19.640625 58.175781 C 16.71875 58.738281 14.207031 59.304688 14.035156 59.4375 C 13.707031 59.667969 13.535156 59.320312 18.773438 69.03125 C 19.859375 71.039062 21.242188 73.472656 21.847656 74.453125 L 22.953125 76.226562 L 20.464844 78.214844 C 12.582031 84.480469 6.890625 90.644531 3.707031 96.363281 L 2.882812 97.839844 L 3.359375 98.136719 C 3.988281 98.519531 12.0625 101.898438 19.964844 105.082031 C 28.863281 108.679688 45.125 115.589844 64.804688 124.175781 C 69.871094 126.363281 73.722656 127.953125 74.046875 127.953125 C 74.675781 127.953125 78.636719 125.582031 94.335938 115.773438 C 99.746094 112.390625 105.9375 108.546875 108.082031 107.234375 C 110.226562 105.925781 112.433594 104.519531 112.996094 104.121094 L 114.015625 103.390625 L 112.324219 101.785156 C 111.371094 100.90625 109.382812 99.082031 107.886719 97.722656 C 106.394531 96.363281 105.160156 95.171875 105.160156 95.039062 C 105.160156 94.921875 107.367188 93.246094 110.09375 91.308594 C 115.636719 87.347656 116.199219 86.933594 116.199219 86.632812 C 116.199219 86.402344 115.8125 86.238281 110.03125 83.867188 C 107.777344 82.9375 105.832031 82.125 105.722656 82.042969 C 105.636719 81.976562 106.5 81.429688 107.671875 80.832031 C 110.09375 79.640625 112.976562 77.933594 115.226562 76.425781 C 116.480469 75.5625 116.828125 75.414062 117.28125 75.496094 C 118.796875 75.777344 120.921875 75.777344 122.15625 75.496094 C 124.882812 74.898438 126.417969 73.988281 127.371094 72.398438 C 127.933594 71.46875 128 71.171875 128 69.777344 C 128 68.335938 127.933594 68.105469 127.285156 67.09375 C 126.050781 65.171875 123.582031 63.910156 120.53125 63.664062 L 118.992188 63.546875 L 114.230469 59.898438 C 111.632812 57.910156 109.488281 56.238281 109.488281 56.1875 C 109.488281 56.136719 110.074219 55.507812 110.808594 54.777344 C 112.519531 53.054688 113.90625 50.851562 114.597656 48.796875 C 115.25 46.890625 115.507812 44.335938 115.140625 43.789062 C 114.816406 43.328125 113.753906 43.109375 111.179688 42.976562 C 109.144531 42.878906 109.078125 42.863281 108.882812 42.429688 L 108.667969 41.984375 L 111.742188 41.703125 C 118.886719 41.023438 124.039062 39.878906 125.273438 38.683594 C 125.878906 38.089844 125.835938 37.589844 125.164062 36.976562 C 124.535156 36.398438 117.152344 33.496094 111.242188 31.492188 C 106.652344 29.933594 106.351562 29.800781 105.917969 28.957031 C 105.722656 28.574219 104.53125 25.195312 103.296875 21.464844 C 98.578125 7.34375 98.210938 6.316406 97.0625 4.394531 C 95.785156 2.289062 93.640625 1.210938 91.023438 1.359375 C 89.613281 1.460938 85.5 2.4375 81.558594 3.648438 C 78.789062 4.492188 76.34375 4.875 74.222656 4.773438 C 72.878906 4.707031 71.472656 4.410156 66.40625 3.101562 C 56.078125 0.449219 50.839844 -0.363281 48.003906 0.234375 Z M 22.128906 17.320312 C 25.574219 17.886719 28.496094 19.542969 31.460938 22.59375 C 33.410156 24.582031 34.167969 25.773438 34.90625 28.011719 C 35.207031 28.972656 35.8125 30.5625 36.203125 31.574219 C 36.875 33.234375 38.109375 37.292969 37.980469 37.394531 C 37.957031 37.425781 36.417969 36.945312 34.578125 36.347656 C 32.738281 35.75 30.964844 35.1875 30.640625 35.089844 C 29.015625 34.589844 27.5 36.449219 28.34375 37.890625 C 28.5625 38.238281 29.167969 38.535156 30.898438 39.167969 C 35.964844 40.972656 39.90625 42.183594 52.332031 45.714844 L 55.6875 46.65625 L 55.839844 48.066406 C 56.273438 52.09375 56.921875 53.917969 58.523438 55.742188 C 61.230469 58.773438 64.78125 60 70.84375 60 C 75.28125 60 78.53125 59.351562 81.34375 57.929688 C 84.050781 56.550781 86.691406 53.96875 88.078125 51.382812 C 88.726562 50.171875 88.855469 50.039062 89.570312 49.890625 C 90.4375 49.707031 91.542969 49.675781 92.039062 49.824219 C 92.234375 49.890625 92.992188 50.601562 93.726562 51.414062 C 96.324219 54.332031 99.53125 56.585938 107.605469 61.160156 C 112.324219 63.84375 114.035156 64.90625 114.035156 65.15625 C 114.035156 65.253906 113.796875 65.601562 113.496094 65.933594 C 112.066406 67.542969 111.566406 70.589844 112.476562 72.164062 C 112.738281 72.613281 112.929688 72.992188 112.910156 73.011719 C 112.542969 73.191406 107.152344 74.867188 105.765625 75.230469 C 102.085938 76.175781 96.5625 77.019531 91.304688 77.402344 C 89.417969 77.550781 77.621094 77.75 72.488281 77.734375 C 72.054688 77.734375 72.230469 77.917969 73.570312 78.859375 C 76.039062 80.566406 80.890625 84.179688 82.101562 85.160156 L 83.164062 86.039062 L 82.578125 88.324219 C 81.992188 90.644531 80.023438 96.429688 79.613281 97.160156 C 79.375 97.523438 79.242188 97.441406 75.757812 94.804688 C 72.054688 92.003906 69.242188 90.148438 62.941406 86.386719 C 60.972656 85.210938 59.367188 84.148438 59.390625 84.015625 C 59.414062 83.882812 61.296875 81.664062 63.570312 79.09375 C 65.863281 76.507812 67.789062 74.285156 67.855469 74.152344 C 68.007812 73.855469 66.621094 73.359375 58.9375 70.972656 C 55.730469 69.976562 49.042969 67.890625 44.105469 66.332031 C 39.167969 64.789062 34.191406 63.25 33.0625 62.898438 C 29.96875 61.957031 30.164062 62.269531 30.316406 58.757812 C 30.402344 56.882812 30.660156 54.695312 31.007812 52.871094 C 31.808594 48.695312 31.546875 49.109375 33.886719 48.480469 C 36.136719 47.882812 36.679688 47.585938 36.875 46.824219 C 37.046875 46.109375 36.484375 45.117188 35.835938 45 C 35.53125 44.933594 34.320312 45.117188 33.019531 45.398438 C 29.796875 46.078125 27.542969 46.308594 25.074219 46.175781 C 22.324219 46.042969 20.269531 45.597656 17.367188 44.503906 C 13.101562 42.894531 10.070312 40.824219 8.210938 38.253906 C 5.65625 34.722656 4.855469 32.570312 4.855469 29.253906 C 4.832031 24.265625 7.234375 20.652344 12.238281 18.101562 C 14.226562 17.089844 15.289062 16.890625 18.125 16.972656 C 19.488281 17.023438 21.308594 17.171875 22.128906 17.320312 Z M 45.511719 23.304688 C 48.480469 23.917969 62.054688 25.195312 72.035156 25.789062 C 77.621094 26.121094 92.277344 26.269531 96.605469 26.054688 C 98.402344 25.957031 99.917969 25.921875 100.007812 25.988281 C 100.09375 26.054688 100.351562 27.367188 100.613281 28.90625 C 100.851562 30.449219 101.109375 31.757812 101.175781 31.839844 C 101.242188 31.921875 101.21875 31.988281 101.152344 31.988281 C 101.066406 31.988281 99.679688 32.15625 98.058594 32.355469 C 95.351562 32.703125 94.398438 32.734375 87.191406 32.734375 C 78.875 32.71875 75.5625 32.519531 66.40625 31.476562 C 60.644531 30.8125 48.523438 29.054688 47.265625 28.675781 C 46.941406 28.59375 46.574219 28.109375 46.074219 27.082031 C 45.210938 25.359375 43.996094 23.4375 43.671875 23.289062 C 43.261719 23.089844 43.457031 22.855469 43.953125 22.972656 C 44.214844 23.039062 44.929688 23.1875 45.511719 23.304688 Z M 44.667969 34.957031 C 49.5625 36.53125 61.878906 39.132812 69.761719 40.261719 C 72.359375 40.625 78.335938 41.289062 82.75 41.683594 C 86.84375 42.050781 95.828125 42.316406 99.984375 42.199219 L 103.601562 42.101562 L 103.730469 42.464844 C 104.035156 43.328125 103.96875 43.375 101.867188 43.675781 C 99.464844 44.023438 96.042969 44.785156 94.3125 45.347656 C 93.25 45.679688 92.6875 45.746094 90.804688 45.746094 C 88.769531 45.746094 88.402344 45.695312 87.144531 45.265625 C 84.417969 44.320312 80.023438 43.507812 74.199219 42.894531 C 71.429688 42.597656 69.589844 42.53125 63.699219 42.496094 L 56.554688 42.464844 L 50.277344 40.773438 C 46.832031 39.84375 43.933594 39.015625 43.847656 38.902344 C 43.78125 38.800781 43.652344 38.007812 43.585938 37.144531 C 43.5 36.265625 43.347656 35.304688 43.261719 35.007812 C 43.152344 34.722656 43.089844 34.476562 43.132812 34.476562 C 43.175781 34.476562 43.867188 34.691406 44.667969 34.957031 Z M 44.667969 34.957031 "/>
</g>
</svg>
