<?xml version="1.0" encoding="UTF-8"?>
<svg xmlns="http://www.w3.org/2000/svg" xmlns:xlink="http://www.w3.org/1999/xlink" width="32px" height="32px" viewBox="0 0 32 32" version="1.1">
<g id="surface1">
<path style=" stroke:none;fill-rule:nonzero;fill:rgb(0%,0%,0%);fill-opacity:1;" d="M 12 0.0585938 C 11.324219 0.199219 10.835938 0.53125 10.5 1.078125 C 10.183594 1.589844 9.8125 2.320312 9.445312 3.167969 C 9.273438 3.578125 9.109375 3.929688 9.09375 3.949219 C 9.078125 3.96875 8.914062 3.875 8.730469 3.738281 C 8.140625 3.292969 7.480469 3.054688 6.351562 2.878906 C 5.101562 2.683594 4.183594 2.75 3.207031 3.105469 C 2.328125 3.417969 1.777344 3.761719 1.1875 4.371094 C 0.738281 4.828125 0.351562 5.394531 0.234375 5.78125 C -0.175781 7.046875 -0.0351562 8.4375 0.597656 9.390625 C 1.011719 10.019531 2.019531 11.003906 2.59375 11.34375 C 3.636719 11.957031 4.800781 12.320312 5.976562 12.382812 C 6.492188 12.410156 6.507812 12.414062 6.527344 12.515625 C 6.550781 12.632812 6.316406 14.1875 6.269531 14.25 C 6.246094 14.269531 5.636719 14.40625 4.910156 14.542969 C 4.179688 14.683594 3.550781 14.824219 3.507812 14.859375 C 3.425781 14.917969 3.382812 14.828125 4.695312 17.257812 C 4.964844 17.757812 5.3125 18.367188 5.460938 18.613281 L 5.738281 19.054688 L 5.117188 19.554688 C 3.144531 21.121094 1.722656 22.660156 0.925781 24.089844 L 0.722656 24.460938 L 0.839844 24.535156 C 0.996094 24.628906 3.015625 25.476562 4.992188 26.269531 C 7.214844 27.167969 11.28125 28.898438 16.199219 31.042969 C 17.46875 31.589844 18.429688 31.988281 18.511719 31.988281 C 18.667969 31.988281 19.660156 31.394531 23.582031 28.941406 C 24.9375 28.097656 26.484375 27.136719 27.019531 26.808594 C 27.554688 26.480469 28.109375 26.128906 28.25 26.03125 L 28.503906 25.847656 L 28.082031 25.445312 C 27.84375 25.226562 27.34375 24.769531 26.972656 24.429688 C 26.597656 24.089844 26.289062 23.792969 26.289062 23.757812 C 26.289062 23.730469 26.84375 23.3125 27.523438 22.828125 C 28.910156 21.835938 29.050781 21.734375 29.050781 21.660156 C 29.050781 21.601562 28.953125 21.558594 27.507812 20.964844 C 26.945312 20.734375 26.457031 20.53125 26.429688 20.511719 C 26.410156 20.496094 26.625 20.359375 26.917969 20.207031 C 27.523438 19.910156 28.242188 19.484375 28.804688 19.105469 C 29.121094 18.890625 29.207031 18.851562 29.320312 18.875 C 29.699219 18.945312 30.230469 18.945312 30.539062 18.875 C 31.21875 18.726562 31.605469 18.496094 31.84375 18.097656 C 31.984375 17.867188 32 17.792969 32 17.445312 C 32 17.085938 31.984375 17.027344 31.820312 16.773438 C 31.511719 16.292969 30.894531 15.976562 30.132812 15.914062 L 29.75 15.886719 L 28.558594 14.976562 C 27.90625 14.476562 27.371094 14.058594 27.371094 14.046875 C 27.371094 14.035156 27.519531 13.878906 27.703125 13.695312 C 28.128906 13.265625 28.476562 12.710938 28.648438 12.199219 C 28.8125 11.722656 28.878906 11.085938 28.785156 10.949219 C 28.703125 10.832031 28.4375 10.777344 27.792969 10.746094 C 27.285156 10.71875 27.269531 10.714844 27.222656 10.609375 L 27.167969 10.496094 L 27.933594 10.425781 C 29.722656 10.253906 31.007812 9.96875 31.316406 9.671875 C 31.46875 9.523438 31.457031 9.398438 31.289062 9.246094 C 31.132812 9.097656 29.289062 8.375 27.8125 7.875 C 26.664062 7.484375 26.585938 7.449219 26.480469 7.238281 C 26.429688 7.144531 26.132812 6.296875 25.824219 5.367188 C 24.644531 1.835938 24.550781 1.578125 24.265625 1.097656 C 23.945312 0.570312 23.410156 0.304688 22.753906 0.339844 C 22.402344 0.363281 21.375 0.609375 20.390625 0.910156 C 19.699219 1.125 19.085938 1.21875 18.554688 1.195312 C 18.21875 1.175781 17.867188 1.101562 16.601562 0.773438 C 14.019531 0.113281 12.710938 -0.0898438 12 0.0585938 Z M 5.53125 4.332031 C 6.394531 4.472656 7.125 4.886719 7.867188 5.648438 C 8.351562 6.144531 8.542969 6.445312 8.726562 7.003906 C 8.800781 7.242188 8.953125 7.640625 9.050781 7.894531 C 9.21875 8.308594 9.527344 9.324219 9.496094 9.347656 C 9.488281 9.355469 9.105469 9.234375 8.644531 9.085938 C 8.183594 8.9375 7.742188 8.796875 7.660156 8.773438 C 7.253906 8.648438 6.875 9.113281 7.085938 9.472656 C 7.140625 9.558594 7.292969 9.632812 7.726562 9.792969 C 8.992188 10.242188 9.976562 10.546875 13.082031 11.429688 L 13.921875 11.664062 L 13.960938 12.015625 C 14.066406 13.023438 14.230469 13.480469 14.632812 13.933594 C 15.308594 14.691406 16.195312 15 17.710938 15 C 18.820312 15 19.632812 14.839844 20.335938 14.480469 C 21.011719 14.136719 21.671875 13.492188 22.019531 12.84375 C 22.183594 12.542969 22.214844 12.507812 22.394531 12.472656 C 22.609375 12.425781 22.886719 12.417969 23.011719 12.457031 C 23.058594 12.472656 23.246094 12.652344 23.433594 12.855469 C 24.082031 13.582031 24.882812 14.144531 26.902344 15.289062 C 28.082031 15.960938 28.507812 16.226562 28.507812 16.289062 C 28.507812 16.3125 28.449219 16.402344 28.375 16.484375 C 28.015625 16.886719 27.890625 17.648438 28.121094 18.042969 C 28.183594 18.152344 28.234375 18.25 28.226562 18.253906 C 28.136719 18.296875 26.789062 18.714844 26.441406 18.808594 C 25.519531 19.042969 24.140625 19.253906 22.824219 19.351562 C 22.355469 19.386719 19.40625 19.4375 18.121094 19.433594 C 18.015625 19.433594 18.058594 19.480469 18.394531 19.714844 C 19.011719 20.140625 20.222656 21.046875 20.527344 21.289062 L 20.789062 21.507812 L 20.644531 22.082031 C 20.5 22.660156 20.003906 24.109375 19.902344 24.289062 C 19.84375 24.382812 19.8125 24.359375 18.941406 23.703125 C 18.015625 23 17.308594 22.535156 15.734375 21.597656 C 15.242188 21.300781 14.84375 21.035156 14.847656 21.003906 C 14.851562 20.972656 15.324219 20.414062 15.890625 19.773438 C 16.464844 19.125 16.949219 18.570312 16.964844 18.539062 C 17 18.464844 16.65625 18.339844 14.734375 17.742188 C 13.933594 17.496094 12.261719 16.972656 11.027344 16.582031 C 9.792969 16.199219 8.546875 15.8125 8.265625 15.726562 C 7.492188 15.488281 7.539062 15.566406 7.578125 14.6875 C 7.601562 14.222656 7.664062 13.675781 7.75 13.21875 C 7.953125 12.175781 7.886719 12.277344 8.472656 12.121094 C 9.035156 11.972656 9.167969 11.894531 9.21875 11.707031 C 9.261719 11.527344 9.121094 11.277344 8.957031 11.25 C 8.882812 11.234375 8.578125 11.277344 8.253906 11.347656 C 7.449219 11.519531 6.886719 11.578125 6.269531 11.542969 C 5.582031 11.511719 5.066406 11.398438 4.34375 11.125 C 3.277344 10.722656 2.519531 10.207031 2.050781 9.5625 C 1.414062 8.679688 1.214844 8.140625 1.214844 7.3125 C 1.207031 6.066406 1.808594 5.164062 3.058594 4.523438 C 3.558594 4.273438 3.824219 4.222656 4.53125 4.242188 C 4.871094 4.253906 5.328125 4.292969 5.53125 4.332031 Z M 11.378906 5.824219 C 12.121094 5.980469 15.511719 6.296875 18.007812 6.449219 C 19.40625 6.53125 23.070312 6.566406 24.152344 6.515625 C 24.601562 6.488281 24.980469 6.480469 25 6.496094 C 25.023438 6.515625 25.089844 6.839844 25.152344 7.226562 C 25.210938 7.613281 25.277344 7.9375 25.292969 7.960938 C 25.308594 7.980469 25.304688 7.996094 25.289062 7.996094 C 25.265625 7.996094 24.921875 8.039062 24.515625 8.089844 C 23.839844 8.175781 23.601562 8.183594 21.796875 8.183594 C 19.71875 8.179688 18.890625 8.128906 16.601562 7.867188 C 15.160156 7.703125 12.128906 7.265625 11.816406 7.167969 C 11.734375 7.148438 11.644531 7.027344 11.519531 6.769531 C 11.300781 6.339844 11 5.859375 10.917969 5.820312 C 10.816406 5.773438 10.863281 5.714844 10.988281 5.742188 C 11.054688 5.761719 11.230469 5.796875 11.378906 5.824219 Z M 11.167969 8.738281 C 12.390625 9.132812 15.46875 9.785156 17.441406 10.066406 C 18.089844 10.15625 19.582031 10.320312 20.6875 10.421875 C 21.710938 10.511719 23.957031 10.578125 24.996094 10.550781 L 25.898438 10.523438 L 25.933594 10.617188 C 26.007812 10.832031 25.992188 10.84375 25.46875 10.917969 C 24.867188 11.003906 24.011719 11.195312 23.578125 11.335938 C 23.3125 11.421875 23.171875 11.4375 22.703125 11.4375 C 22.191406 11.4375 22.101562 11.425781 21.785156 11.316406 C 21.105469 11.082031 20.003906 10.878906 18.550781 10.722656 C 17.855469 10.648438 17.398438 10.632812 15.925781 10.625 L 14.136719 10.617188 L 12.570312 10.195312 C 11.707031 9.960938 10.984375 9.753906 10.960938 9.726562 C 10.945312 9.699219 10.914062 9.5 10.898438 9.285156 C 10.875 9.066406 10.835938 8.824219 10.816406 8.75 C 10.789062 8.679688 10.773438 8.617188 10.78125 8.617188 C 10.792969 8.617188 10.96875 8.671875 11.167969 8.738281 Z M 11.167969 8.738281 "/>
</g>
</svg>
