<?xml version="1.0" encoding="UTF-8"?>
<svg xmlns="http://www.w3.org/2000/svg" xmlns:xlink="http://www.w3.org/1999/xlink" width="64px" height="64px" viewBox="0 0 64 64" version="1.1">
<g id="surface1">
<path style=" stroke:none;fill-rule:nonzero;fill:rgb(0%,0%,0%);fill-opacity:1;" d="M 24 0.117188 C 22.648438 0.398438 21.675781 1.0625 21.003906 2.15625 C 20.363281 3.183594 19.628906 4.640625 18.890625 6.332031 C 18.546875 7.152344 18.222656 7.855469 18.1875 7.898438 C 18.15625 7.941406 17.832031 7.75 17.464844 7.476562 C 16.28125 6.589844 14.960938 6.109375 12.699219 5.761719 C 10.199219 5.371094 8.371094 5.503906 6.410156 6.207031 C 4.65625 6.835938 3.554688 7.523438 2.371094 8.742188 C 1.472656 9.65625 0.707031 10.789062 0.46875 11.5625 C -0.355469 14.097656 -0.0742188 16.875 1.191406 18.777344 C 2.027344 20.039062 4.039062 22.011719 5.1875 22.691406 C 7.277344 23.917969 9.605469 24.636719 11.953125 24.761719 C 12.980469 24.820312 13.015625 24.828125 13.058594 25.027344 C 13.101562 25.269531 12.636719 28.375 12.539062 28.5 C 12.496094 28.542969 11.269531 28.816406 9.820312 29.089844 C 8.359375 29.371094 7.101562 29.652344 7.015625 29.71875 C 6.855469 29.835938 6.769531 29.660156 9.386719 34.515625 C 9.929688 35.519531 10.621094 36.738281 10.925781 37.226562 L 11.476562 38.113281 L 10.230469 39.105469 C 6.292969 42.238281 3.445312 45.324219 1.851562 48.183594 L 1.441406 48.917969 L 1.679688 49.070312 C 1.992188 49.257812 6.03125 50.949219 9.984375 52.539062 C 14.433594 54.339844 22.5625 57.792969 32.402344 62.085938 C 34.933594 63.179688 36.863281 63.976562 37.023438 63.976562 C 37.335938 63.976562 39.320312 62.792969 47.167969 57.886719 C 49.875 56.195312 52.96875 54.273438 54.039062 53.617188 C 55.113281 52.964844 56.214844 52.257812 56.5 52.058594 L 57.007812 51.695312 L 56.164062 50.890625 C 55.6875 50.453125 54.691406 49.539062 53.945312 48.859375 C 53.195312 48.183594 52.578125 47.585938 52.578125 47.519531 C 52.578125 47.460938 53.683594 46.625 55.046875 45.652344 C 57.820312 43.671875 58.101562 43.464844 58.101562 43.316406 C 58.101562 43.203125 57.90625 43.117188 55.015625 41.933594 C 53.890625 41.46875 52.914062 41.0625 52.859375 41.023438 C 52.816406 40.988281 53.25 40.714844 53.835938 40.417969 C 55.046875 39.820312 56.488281 38.964844 57.613281 38.210938 C 58.242188 37.78125 58.414062 37.707031 58.640625 37.75 C 59.398438 37.890625 60.460938 37.890625 61.078125 37.75 C 62.441406 37.449219 63.210938 36.996094 63.6875 36.199219 C 63.96875 35.734375 64 35.585938 64 34.890625 C 64 34.167969 63.96875 34.050781 63.644531 33.546875 C 63.027344 32.585938 61.792969 31.957031 60.265625 31.832031 L 59.496094 31.773438 L 57.117188 29.949219 C 55.816406 28.957031 54.746094 28.117188 54.746094 28.09375 C 54.746094 28.070312 55.035156 27.753906 55.40625 27.390625 C 56.261719 26.527344 56.953125 25.425781 57.300781 24.398438 C 57.625 23.445312 57.753906 22.167969 57.570312 21.894531 C 57.40625 21.664062 56.878906 21.554688 55.589844 21.488281 C 54.570312 21.4375 54.539062 21.429688 54.441406 21.214844 L 54.332031 20.992188 L 55.871094 20.851562 C 59.441406 20.511719 62.019531 19.9375 62.636719 19.34375 C 62.9375 19.042969 62.917969 18.796875 62.582031 18.488281 C 62.269531 18.199219 58.578125 16.75 55.621094 15.746094 C 53.328125 14.96875 53.175781 14.902344 52.957031 14.476562 C 52.859375 14.289062 52.265625 12.597656 51.648438 10.734375 C 49.289062 3.671875 49.105469 3.15625 48.53125 2.195312 C 47.890625 1.144531 46.820312 0.605469 45.511719 0.679688 C 44.808594 0.730469 42.75 1.21875 40.78125 1.824219 C 39.394531 2.246094 38.171875 2.4375 37.109375 2.386719 C 36.4375 2.355469 35.734375 2.207031 33.203125 1.550781 C 28.039062 0.222656 25.417969 -0.179688 24 0.117188 Z M 11.066406 8.660156 C 12.785156 8.941406 14.246094 9.769531 15.730469 11.296875 C 16.707031 12.289062 17.085938 12.886719 17.453125 14.007812 C 17.605469 14.488281 17.90625 15.28125 18.101562 15.789062 C 18.4375 16.617188 19.054688 18.648438 18.988281 18.695312 C 18.980469 18.714844 18.210938 18.472656 17.289062 18.175781 C 16.371094 17.875 15.480469 17.59375 15.320312 17.542969 C 14.507812 17.296875 13.75 18.222656 14.171875 18.945312 C 14.28125 19.117188 14.582031 19.269531 15.449219 19.582031 C 17.984375 20.488281 19.953125 21.089844 26.167969 22.855469 L 27.84375 23.328125 L 27.921875 24.035156 C 28.136719 26.046875 28.460938 26.957031 29.261719 27.871094 C 30.617188 29.386719 32.390625 30 35.421875 30 C 37.640625 30 39.265625 29.675781 40.671875 28.964844 C 42.023438 28.277344 43.347656 26.984375 44.039062 25.691406 C 44.363281 25.085938 44.429688 25.019531 44.785156 24.945312 C 45.21875 24.855469 45.769531 24.835938 46.019531 24.910156 C 46.117188 24.945312 46.496094 25.300781 46.863281 25.707031 C 48.164062 27.164062 49.765625 28.292969 53.804688 30.578125 C 56.164062 31.921875 57.019531 32.453125 57.019531 32.578125 C 57.019531 32.625 56.898438 32.800781 56.746094 32.964844 C 56.03125 33.769531 55.785156 35.296875 56.238281 36.082031 C 56.367188 36.304688 56.464844 36.496094 56.453125 36.503906 C 56.269531 36.597656 53.574219 37.433594 52.882812 37.617188 C 51.042969 38.089844 48.28125 38.511719 45.652344 38.703125 C 44.710938 38.777344 38.808594 38.875 36.246094 38.867188 C 36.027344 38.867188 36.113281 38.957031 36.785156 39.429688 C 38.019531 40.285156 40.445312 42.089844 41.050781 42.578125 L 41.582031 43.019531 L 41.289062 44.164062 C 40.996094 45.324219 40.011719 48.214844 39.804688 48.578125 C 39.6875 48.761719 39.621094 48.71875 37.878906 47.402344 C 36.027344 46.003906 34.621094 45.074219 31.46875 43.191406 C 30.484375 42.605469 29.683594 42.074219 29.695312 42.007812 C 29.707031 41.941406 30.648438 40.832031 31.785156 39.546875 C 32.933594 38.253906 33.894531 37.144531 33.929688 37.078125 C 34.003906 36.929688 33.3125 36.679688 29.46875 35.484375 C 27.867188 34.988281 24.519531 33.945312 22.054688 33.164062 C 19.585938 32.394531 17.09375 31.625 16.53125 31.449219 C 14.984375 30.976562 15.082031 31.136719 15.15625 29.378906 C 15.199219 28.441406 15.332031 27.347656 15.503906 26.4375 C 15.902344 24.347656 15.773438 24.554688 16.945312 24.242188 C 18.070312 23.941406 18.339844 23.792969 18.4375 23.410156 C 18.523438 23.054688 18.242188 22.558594 17.917969 22.5 C 17.765625 22.46875 17.160156 22.558594 16.511719 22.699219 C 14.898438 23.039062 13.773438 23.15625 12.539062 23.089844 C 11.164062 23.023438 10.132812 22.796875 8.683594 22.25 C 6.550781 21.449219 5.035156 20.410156 4.105469 19.128906 C 2.828125 17.363281 2.425781 16.285156 2.425781 14.628906 C 2.417969 12.132812 3.617188 10.328125 6.117188 9.050781 C 7.113281 8.542969 7.644531 8.445312 9.0625 8.488281 C 9.746094 8.511719 10.652344 8.585938 11.066406 8.660156 Z M 22.757812 11.652344 C 24.238281 11.957031 31.027344 12.597656 36.015625 12.894531 C 38.808594 13.0625 46.136719 13.136719 48.304688 13.027344 C 49.203125 12.976562 49.960938 12.960938 50.003906 12.996094 C 50.046875 13.027344 50.175781 13.683594 50.304688 14.453125 C 50.425781 15.222656 50.554688 15.878906 50.585938 15.921875 C 50.621094 15.960938 50.609375 15.996094 50.578125 15.996094 C 50.535156 15.996094 49.839844 16.078125 49.027344 16.175781 C 47.675781 16.351562 47.199219 16.367188 43.59375 16.367188 C 39.4375 16.359375 37.78125 16.261719 33.203125 15.738281 C 30.324219 15.40625 24.261719 14.527344 23.632812 14.335938 C 23.472656 14.296875 23.285156 14.054688 23.039062 13.542969 C 22.605469 12.679688 22 11.71875 21.835938 11.644531 C 21.628906 11.542969 21.726562 11.429688 21.976562 11.488281 C 22.105469 11.519531 22.464844 11.59375 22.757812 11.652344 Z M 22.335938 17.476562 C 24.78125 18.265625 30.941406 19.566406 34.878906 20.128906 C 36.179688 20.3125 39.167969 20.644531 41.375 20.84375 C 43.421875 21.023438 47.914062 21.15625 49.992188 21.097656 L 51.800781 21.050781 L 51.863281 21.230469 C 52.015625 21.664062 51.984375 21.6875 50.933594 21.835938 C 49.734375 22.011719 48.023438 22.390625 47.15625 22.675781 C 46.625 22.839844 46.34375 22.871094 45.402344 22.871094 C 44.386719 22.871094 44.199219 22.847656 43.574219 22.632812 C 42.210938 22.160156 40.011719 21.753906 37.101562 21.449219 C 35.714844 21.296875 34.792969 21.265625 31.847656 21.25 L 28.277344 21.230469 L 25.136719 20.386719 C 23.417969 19.921875 21.964844 19.507812 21.921875 19.449219 C 21.890625 19.402344 21.824219 19.003906 21.792969 18.570312 C 21.75 18.132812 21.675781 17.652344 21.628906 17.503906 C 21.578125 17.363281 21.542969 17.238281 21.566406 17.238281 C 21.585938 17.238281 21.933594 17.34375 22.335938 17.476562 Z M 22.335938 17.476562 "/>
</g>
</svg>
